<svg xmlns="http://www.w3.org/2000/svg" width="68.934" height="68.934" viewBox="0 0 68.934 68.934">
  <g id="access" transform="translate(-1 -1)">
    <path id="Path_2339" data-name="Path 2339" d="M8.335,51a3.327,3.327,0,0,0-1.112,6.466v2.428H9.447V57.466A3.327,3.327,0,0,0,8.335,51Zm0,4.447a1.112,1.112,0,1,1,1.112-1.112A1.113,1.113,0,0,1,8.335,55.447Z" transform="translate(0.447 5.592)" fill="#fff"/>
    <path id="Path_2340" data-name="Path 2340" d="M14.342,44.559a5.559,5.559,0,1,0-11.118,0v5.683A7.751,7.751,0,0,0,1,55.677V57.9a7.783,7.783,0,1,0,15.566,0V55.677a7.751,7.751,0,0,0-2.224-5.436ZM8.783,41.224a3.34,3.34,0,0,1,3.335,3.335v4.1a7.685,7.685,0,0,0-6.671,0v-4.1A3.34,3.34,0,0,1,8.783,41.224ZM14.342,57.9a5.559,5.559,0,1,1-11.118,0V55.677a5.559,5.559,0,1,1,11.118,0Z" transform="translate(0 4.25)" fill="#fff"/>
    <path id="Path_2341" data-name="Path 2341" d="M56.335,13a3.327,3.327,0,0,0-1.112,6.466v2.428h2.224V19.466A3.327,3.327,0,0,0,56.335,13Zm0,4.447a1.112,1.112,0,1,1,1.112-1.112A1.113,1.113,0,0,1,56.335,17.447Z" transform="translate(5.815 1.342)" fill="#fff"/>
    <path id="Path_2342" data-name="Path 2342" d="M62.342,12.242V6.559a5.559,5.559,0,0,0-11.118,0v5.683A7.755,7.755,0,0,0,49,17.677V19.9a7.783,7.783,0,1,0,15.566,0V17.677A7.751,7.751,0,0,0,62.342,12.242ZM56.783,3.224a3.34,3.34,0,0,1,3.335,3.335v4.1a7.685,7.685,0,0,0-6.671,0v-4.1a3.34,3.34,0,0,1,3.335-3.335ZM62.342,19.9a5.559,5.559,0,0,1-11.118,0V17.677a5.559,5.559,0,0,1,11.118,0Z" transform="translate(5.368)" fill="#fff"/>
    <path id="Path_2343" data-name="Path 2343" d="M56.518,54.131l-.51-1.531a5.57,5.57,0,0,0,1.422-1.922H57.9a3.331,3.331,0,0,0,2.75-5.218A8.381,8.381,0,0,0,52.832,34h-.981a8.382,8.382,0,0,0-7.818,11.461,3.3,3.3,0,0,0-.586,1.881,3.34,3.34,0,0,0,3.335,3.335h.471A5.57,5.57,0,0,0,48.676,52.6l-.509,1.528a11.207,11.207,0,0,0-9.167,11v1.112H65.684V65.131A11.217,11.217,0,0,0,56.518,54.131ZM50.77,58.46l-.977.977-.326-2.28Zm1.572,1.572,3.987,3.987H48.355Zm2.875-2.875-.326,2.28-.977-.977Zm2.684-8.7V46.23a1.112,1.112,0,1,1,0,2.224Zm-12.23-1.112a1.113,1.113,0,0,1,1.112-1.112v2.224A1.113,1.113,0,0,1,45.671,47.342Zm1.223-3.335h-.111a3.281,3.281,0,0,0-.854.125,6.145,6.145,0,0,1,5.923-7.907h.981a6.15,6.15,0,0,1,5.924,7.908,3.25,3.25,0,0,0-.855-.126V42.895H55.677v1.112c-2.177,0-2.223-3.2-2.224-3.339l-1.112,0H51.23c0,1.922.929,5.559,4.447,5.559v2.224a3.335,3.335,0,0,1-6.671,0v-3.5a2.21,2.21,0,0,1,1.229-1.989l.38-.19-1-1.989-.38.19A4.414,4.414,0,0,0,46.894,44.006Zm5.448,10.006a5.5,5.5,0,0,0,1.7-.292l.368,1.1-2.064,2.064-2.064-2.064.368-1.1a5.5,5.5,0,0,0,1.7.292Zm-5.184,2.7L48.2,64.019H41.293A8.982,8.982,0,0,1,47.158,56.713Zm9.325,7.307L57.528,56.7a8.988,8.988,0,0,1,5.864,7.316Z" transform="translate(4.25 3.69)" fill="#fff"/>
    <path id="Path_2344" data-name="Path 2344" d="M21.013,35.467a14.474,14.474,0,1,0,4.271-10.246,11.065,11.065,0,0,0-2.047-2.007V9.895a8.895,8.895,0,0,0-17.789,0V23.219A11.186,11.186,0,0,0,1,32.131v1.112H21.2A14.516,14.516,0,0,0,21.013,35.467Zm3.573-5.559h4.689a30.339,30.339,0,0,0-.455,4.447H23.293a12.118,12.118,0,0,1,1.293-4.447Zm10.88-6.671c1.2,0,2.468,1.7,3.346,4.447H32.121C33,24.934,34.272,23.237,35.467,23.237Zm3.913,6.671a27.57,27.57,0,0,1,.511,4.447H31.043a27.7,27.7,0,0,1,.511-4.447Zm8.261,4.447H42.113a30.492,30.492,0,0,0-.455-4.447h4.689a12.118,12.118,0,0,1,1.293,4.447ZM35.467,47.7c-1.2,0-2.468-1.7-3.346-4.447h6.691C37.935,46,36.662,47.7,35.467,47.7Zm-3.913-6.671a27.57,27.57,0,0,1-.511-4.447h8.848a27.7,27.7,0,0,1-.511,4.447Zm-8.261-4.447H28.82a30.492,30.492,0,0,0,.455,4.447H24.586a12.118,12.118,0,0,1-1.293-4.447Zm18.82,0H47.64a12.119,12.119,0,0,1-1.294,4.447H41.657A30.182,30.182,0,0,0,42.113,36.579ZM26.04,43.25h3.751a15.41,15.41,0,0,0,1.547,3.715,12.272,12.272,0,0,1-5.3-3.715ZM39.6,46.964a15.41,15.41,0,0,0,1.547-3.715h3.751A12.272,12.272,0,0,1,39.6,46.964Zm5.3-19.28H41.143A15.41,15.41,0,0,0,39.6,23.969,12.272,12.272,0,0,1,44.894,27.684ZM31.337,23.969a15.41,15.41,0,0,0-1.547,3.715H26.04a12.272,12.272,0,0,1,5.3-3.715ZM18.518,21.13l-.51-1.53a5.57,5.57,0,0,0,1.422-1.922H19.9a3.3,3.3,0,0,0,1.112-.2v4.433A11.479,11.479,0,0,0,18.518,21.13Zm-5.872-.409a5.5,5.5,0,0,0,1.7.292,5.5,5.5,0,0,0,1.7-.292l.515,1.543a2.213,2.213,0,0,1-4.42,0ZM19.9,13.23a1.112,1.112,0,1,1,0,2.224ZM14.342,3.224a6.678,6.678,0,0,1,6.671,6.671v1.316a3.3,3.3,0,0,0-1.112-.2V9.895H17.677v1.112c-2.177,0-2.223-3.2-2.224-3.339l-1.112,0H13.23c0,1.922.929,5.559,4.447,5.559v2.224a3.335,3.335,0,1,1-6.671,0v-3.5a2.21,2.21,0,0,1,1.229-1.989l.38-.19-1-1.989-.38.19a4.414,4.414,0,0,0-2.346,3.029H8.783a3.3,3.3,0,0,0-1.112.2V9.895a6.678,6.678,0,0,1,6.671-6.671ZM8.783,15.454a1.112,1.112,0,1,1,0-2.224ZM7.671,17.473a3.3,3.3,0,0,0,1.112.2h.471A5.57,5.57,0,0,0,10.676,19.6l-.509,1.528a11.145,11.145,0,0,0-2.5.779ZM3.293,31.019a8.992,8.992,0,0,1,6.819-7.595,4.417,4.417,0,0,0,8.464-.011A8.877,8.877,0,0,1,23.8,26.962a14.418,14.418,0,0,0-2.086,4.057Z" fill="#fff"/>
    <path id="Path_2345" data-name="Path 2345" d="M34.789,51.652V47H32.566v4.652a3.332,3.332,0,0,0-2.019,2.019H17v2.224H30.547a3.327,3.327,0,1,0,4.243-4.243Zm-1.112,4.243a1.112,1.112,0,1,1,1.112-1.112A1.113,1.113,0,0,1,33.677,55.895Z" transform="translate(1.789 5.144)" fill="#fff"/>
    <path id="Path_2346" data-name="Path 2346" d="M31.224,13.466v4.652h2.224V13.466a3.332,3.332,0,0,0,2.019-2.019H49.013V9.224H35.466a3.327,3.327,0,1,0-4.243,4.243Zm1.112-4.243a1.112,1.112,0,1,1-1.112,1.112A1.113,1.113,0,0,1,32.335,9.224Z" transform="translate(3.131 0.671)" fill="#fff"/>
  </g>
</svg>
