<svg xmlns="http://www.w3.org/2000/svg" xmlns:xlink="http://www.w3.org/1999/xlink" width="97.649" height="97.629" viewBox="0 0 97.649 97.629">
  <defs>
    <linearGradient id="linear-gradient" x1="0.657" y1="0.205" x2="0.972" y2="1.162" gradientUnits="objectBoundingBox">
      <stop offset="0" stop-color="#2b5e8a"/>
      <stop offset="0.527" stop-color="#3d7ab0"/>
      <stop offset="1" stop-color="#8bb1d1"/>
    </linearGradient>
  </defs>
  <g id="world" transform="translate(0 -0.05)">
    <g id="Group_502" data-name="Group 502" transform="translate(0 0.05)">
      <path id="Path_2400" data-name="Path 2400" d="M48.842.05a48.815,48.815,0,0,0-44.882,29.6l-.609.2.236.708A48.811,48.811,0,1,0,48.842.05Zm38.29,73.426-2.507-2.505V65.136a1.625,1.625,0,0,0-.163-.727L78.116,51.735V45.61a1.627,1.627,0,0,0-.724-1.354L72.511,41a1.628,1.628,0,0,0-1.3-.225l-5.978,1.494L55.19,37.963l-1.381-9.678,3.829-3.827h8.219l2.766,4.157a1.627,1.627,0,0,0,1.087.7l9.763,1.627a1.613,1.613,0,0,0,.781-.062l8.992-3A45.4,45.4,0,0,1,87.132,73.476ZM80.42,16.084l-2.646,1.764L70.4,16.372l-4.785-1.593a1.6,1.6,0,0,0-.908-.036l-6.05,1.512L56,15.371l1.966-3.931h5.5a1.627,1.627,0,0,0,.727-.171l5.63-2.815A45.728,45.728,0,0,1,80.42,16.084ZM31.005,6.938l3.905,2.6a1.625,1.625,0,0,0,.636.251l7.885,1.315-.77,2.3-4.109,1.372a1.627,1.627,0,0,0-.88.7L33,23.273l-7.506,4.5L14.43,29.357a1.627,1.627,0,0,0-1.4,1.609v4.881A1.627,1.627,0,0,0,13.507,37l2.778,2.778v2.8L9.516,38.057,7.06,30.691A45.822,45.822,0,0,1,31.005,6.938ZM26.373,60.287l-7.355-1.473-2.734-5.453V49.538l6.063-6.063,2.244,4.489a1.627,1.627,0,0,0,1.456.9H36.517l4.408,7.347A1.627,1.627,0,0,0,42.319,57h4.523L45.7,62.707l-6.16,6.16a1.628,1.628,0,0,0-.478,1.15v4.068l-5.858,4.393a1.627,1.627,0,0,0-.651,1.3v5.877l-2.024-.67-2.857-7.146V61.882A1.627,1.627,0,0,0,26.373,60.287ZM21.482,85.3A45.549,45.549,0,0,1,5.254,35.561l1.352,4.055a1.626,1.626,0,0,0,.639.84l8.111,5.407-1.85,1.852a1.627,1.627,0,0,0-.477,1.15v4.881a1.627,1.627,0,0,0,.171.727l3.254,6.509a1.628,1.628,0,0,0,1.139.867l6.834,1.365V78.153a1.628,1.628,0,0,0,.116.6L27.8,86.893a1.627,1.627,0,0,0,1,.939l4.881,1.627a1.6,1.6,0,0,0,.506.085,1.627,1.627,0,0,0,1.627-1.627V80.594L41.668,76.2a1.627,1.627,0,0,0,.651-1.3V70.691l6.032-6.032a1.628,1.628,0,0,0,.444-.831l1.627-8.136a1.627,1.627,0,0,0-1.595-1.946H43.24L38.832,46.4a1.627,1.627,0,0,0-1.394-.789H27.053L24.258,40a1.627,1.627,0,0,0-1.2-.879,1.6,1.6,0,0,0-1.411.456l-2.112,2.1V39.1a1.627,1.627,0,0,0-.477-1.15l-2.778-2.778v-2.8l9.994-1.427a1.635,1.635,0,0,0,.607-.216l8.136-4.881a1.626,1.626,0,0,0,.556-.556l4.572-7.62,4.31-1.438a1.611,1.611,0,0,0,1.028-1.028l1.627-4.881A1.628,1.628,0,0,0,45.84,8.212l-9.418-1.57-1.655-1.1A45.435,45.435,0,0,1,66.061,6.7L63.088,8.186H56.963a1.627,1.627,0,0,0-1.464.9l-3.254,6.509a1.628,1.628,0,0,0,.942,2.27l4.881,1.627a1.6,1.6,0,0,0,.908.036l6.05-1.512,4.432,1.476a1.2,1.2,0,0,0,.2.052l8.136,1.627a1.616,1.616,0,0,0,1.222-.241l3.7-2.47A45.9,45.9,0,0,1,87.609,25L79.6,27.668l-8.668-1.445-2.864-4.3a1.627,1.627,0,0,0-1.346-.724H56.963a1.627,1.627,0,0,0-1.15.477l-4.881,4.881a1.627,1.627,0,0,0-.46,1.381L52.1,39.333a1.627,1.627,0,0,0,.976,1.264l11.39,4.881a1.608,1.608,0,0,0,1.035.083l5.811-1.453,3.552,2.372v5.638a1.625,1.625,0,0,0,.163.727L81.371,65.52v6.125a1.627,1.627,0,0,0,.477,1.15l3.4,3.406A45.549,45.549,0,0,1,21.482,85.3Z" transform="translate(0 -0.05)" fill="url(#linear-gradient)"/>
    </g>
  </g>
</svg>
