<svg xmlns="http://www.w3.org/2000/svg" xmlns:xlink="http://www.w3.org/1999/xlink" width="99.399" height="98.075" viewBox="0 0 99.399 98.075">
  <defs>
    <linearGradient id="linear-gradient" x1="0.657" y1="0.205" x2="0.972" y2="1.162" gradientUnits="objectBoundingBox">
      <stop offset="0" stop-color="#2b5e8a"/>
      <stop offset="0.527" stop-color="#3d7ab0"/>
      <stop offset="1" stop-color="#8bb1d1"/>
    </linearGradient>
  </defs>
  <g id="partnership-handshake" transform="translate(0.001 -0.5)">
    <path id="Path_2395" data-name="Path 2395" d="M98.993,122,82.356,100.385a1.949,1.949,0,0,0-2.591-.455l-10.741,6.831H55.015a1.932,1.932,0,0,0-.536.089l-10.862,3.127-11.271-3.083L21.4,99.93a1.948,1.948,0,0,0-2.562.42L.432,123.143a1.949,1.949,0,0,0,.246,2.7l9.645,8.3,8.653,11.66a6.882,6.882,0,0,0,4.329,11.56,6.932,6.932,0,0,0-.08,1.053,6.888,6.888,0,0,0,6.888,6.888l.074,0c0,.047,0,.093,0,.14a6.887,6.887,0,0,0,6.888,6.888,7.029,7.029,0,0,0,1.075-.084,6.888,6.888,0,0,0,11.722,4.194l1.053-1.053.442.356a6.885,6.885,0,0,0,11.673-5.058,6.876,6.876,0,0,0,6.992-6.988,6.883,6.883,0,0,0,6.991-7A6.884,6.884,0,0,0,82.9,146.068l6.318-13.232,9.5-8.174A1.949,1.949,0,0,0,98.993,122ZM20.772,104.153l7.875,5.007-17.13,20.87-6.865-5.908ZM21.883,148.4l2.377-2.377c.072-.072.148-.14.225-.2a2.983,2.983,0,0,1,1.624-.659l.051,0c.085-.007.17-.011.256-.011a2.972,2.972,0,0,1,2.132.937,3.064,3.064,0,0,1-.132,4.24l-2.3,2.3a2.99,2.99,0,0,1-4.228-4.229ZM28,160.532a2.989,2.989,0,0,1,0-4.228l4.609-4.608a3.021,3.021,0,0,1,3.4-.587,2.98,2.98,0,0,1,1.647,3.087,3.155,3.155,0,0,1-.89,1.8l-4.536,4.535a2.99,2.99,0,0,1-4.229,0Zm6.959,7.026a2.989,2.989,0,0,1,0-4.228l4.608-4.608a3.023,3.023,0,0,1,3.614-.474,2.975,2.975,0,0,1,1.427,3.021,3.159,3.159,0,0,1-.886,1.754l-4.535,4.535a2.99,2.99,0,0,1-4.229,0Zm7.926,6.127a2.993,2.993,0,0,1,0-4.228l2.377-2.377c.072-.072.147-.14.224-.2l.005,0a2.979,2.979,0,0,1,1.326-.616l.034,0c.083-.015.168-.027.253-.035.034,0,.068,0,.1-.005.07,0,.139-.008.209-.008a2.971,2.971,0,0,1,2.132.937,2.7,2.7,0,0,1,.193.227,3.086,3.086,0,0,1-.337,4.025l-2.292,2.292a2.993,2.993,0,0,1-4.228,0Zm36.359-21.752a2.992,2.992,0,0,1-4.228,0,1.77,1.77,0,0,0-.133-.119L62.349,139.15a1.949,1.949,0,0,0-2.771,2.742l12.668,12.8,0,0a2.99,2.99,0,1,1-4.229,4.229l-8.475-8.563a1.949,1.949,0,1,0-2.77,2.742l8.345,8.431a1.85,1.85,0,0,0,.136.152,2.99,2.99,0,1,1-4.229,4.228L56.4,161.243a1.949,1.949,0,0,0-2.771,2.741l4.5,4.543a1.746,1.746,0,0,0,.137.153,2.99,2.99,0,1,1-4.228,4.229,4.31,4.31,0,0,0-.442-.353c-.127-.1-.161-.165-.1-.319s.161-.3.225-.457c.071-.176.129-.357.185-.539a7.027,7.027,0,0,0,.253-3,6.818,6.818,0,0,0-5.81-5.867,6.952,6.952,0,0,0-1.669-6.272,6.837,6.837,0,0,0-4.91-2.154h-.206a6.821,6.821,0,0,0-6.752-7.026,7.01,7.01,0,0,0-1.663.177,6.821,6.821,0,0,0-6.683-5.848,6.9,6.9,0,0,0-4.706,1.77l-7.534-10.152L32.254,110.91,38,112.481,30.5,125.72a6.889,6.889,0,0,0,2.6,9.388q.15.085.3.162l.024.011a6.934,6.934,0,0,0,.827.347,6.888,6.888,0,0,0,8.235-3.117l4.875-8.6,8.705.617,23.18,23.18a3,3,0,0,1,0,4.229ZM80.049,143,58.3,121.255a1.728,1.728,0,0,0-.129-.118,1.95,1.95,0,0,0-1.111-.447l-10.659-.756a1.981,1.981,0,0,0-1.834.984L39.09,130.59a2.99,2.99,0,1,1-5.2-2.948l7.317-12.914,2.965-.853.058-.02,11.067-3.2H68.666l16.693,21.22Zm7.863-14.18L72.476,109.186l7.879-5.01,14.425,18.737Zm0,0" transform="translate(0 -79.881)" fill="url(#linear-gradient)"/>
    <path id="Path_2396" data-name="Path 2396" d="M302.094,46.083a1.944,1.944,0,0,0,1.379-.571L316.786,32.2a1.949,1.949,0,0,0-2.757-2.757L300.716,42.756a1.949,1.949,0,0,0,1.378,3.328Zm0,0" transform="translate(-241.876 -22.863)" fill="url(#linear-gradient)"/>
    <path id="Path_2397" data-name="Path 2397" d="M137.08,45.513a1.949,1.949,0,0,0,2.757-2.757L126.523,29.442a1.949,1.949,0,0,0-2.757,2.757Zm0,0" transform="translate(-99.279 -22.863)" fill="url(#linear-gradient)"/>
    <path id="Path_2398" data-name="Path 2398" d="M247.91,55.615a1.949,1.949,0,0,0,1.949-1.949V42.648a1.949,1.949,0,0,0-3.9,0V53.666A1.949,1.949,0,0,0,247.91,55.615Zm0,0" transform="translate(-198.211 -32.395)" fill="url(#linear-gradient)"/>
    <path id="Path_2399" data-name="Path 2399" d="M246.131,3.189A1.948,1.948,0,1,0,249.116.9a1.948,1.948,0,0,0-2.985,2.292Zm0,0" transform="translate(-198.231)" fill="url(#linear-gradient)"/>
  </g>
</svg>
