<svg xmlns="http://www.w3.org/2000/svg" xmlns:xlink="http://www.w3.org/1999/xlink" width="68.934" height="68.934" viewBox="0 0 68.934 68.934">
  <defs>
    <linearGradient id="linear-gradient" x1="0.657" y1="0.205" x2="0.972" y2="1.162" gradientUnits="objectBoundingBox">
      <stop offset="0" stop-color="#2b5e8a"/>
      <stop offset="0.527" stop-color="#3d7ab0"/>
      <stop offset="1" stop-color="#8bb1d1"/>
    </linearGradient>
  </defs>
  <g id="hybrid" transform="translate(-1 -1)">
    <path id="Path_2277" data-name="Path 2277" d="M55.48,41.026a14.464,14.464,0,0,0-14.4,13.342H39.914A1.113,1.113,0,0,1,38.8,53.256V35.467a1.113,1.113,0,0,1,1.112-1.112H56.592a10.009,10.009,0,0,0,1.913-19.834,10.335,10.335,0,0,0-2.491-.159,10.014,10.014,0,0,0-9.429-6.691A9.849,9.849,0,0,0,43.1,8.3a15.557,15.557,0,0,0-28.586,6.047,10.3,10.3,0,0,0-2.167.186A9.965,9.965,0,0,0,4.53,22.352a10.015,10.015,0,0,0,9.812,12H31.019a1.113,1.113,0,0,1,1.112,1.112V51.032a1.113,1.113,0,0,1-1.112,1.112H29.908V42.138a5.565,5.565,0,0,0-5.559-5.559H6.559A5.565,5.565,0,0,0,1,42.138V64.374a5.565,5.565,0,0,0,5.559,5.559H24.348a5.565,5.565,0,0,0,5.559-5.559V54.368h1.112a3.34,3.34,0,0,0,3.335-3.335V35.467a3.34,3.34,0,0,0-3.335-3.335H14.342A7.763,7.763,0,0,1,8.334,29.3a7.85,7.85,0,0,1-1.621-6.52,7.727,7.727,0,0,1,6.057-6.057,7.851,7.851,0,0,1,6.519,1.621,7.762,7.762,0,0,1,2.836,6.008h2.224a9.984,9.984,0,0,0-7.633-9.714,13.336,13.336,0,0,1,24.942-4.391l.51.946.963-.478a7.7,7.7,0,0,1,3.454-.817,7.783,7.783,0,0,1,0,15.566v2.224a9.981,9.981,0,0,0,9.943-11.1,8.149,8.149,0,0,1,1.57.126,7.721,7.721,0,0,1,6.123,6.069A7.85,7.85,0,0,1,62.6,29.3a7.761,7.761,0,0,1-6.008,2.836H39.914a3.34,3.34,0,0,0-3.335,3.335V53.256a3.34,3.34,0,0,0,3.335,3.335h1.169a14.447,14.447,0,1,0,14.4-15.566ZM6.559,38.8H24.348a3.34,3.34,0,0,1,3.335,3.335V58.815H3.224V42.138A3.34,3.34,0,0,1,6.559,38.8ZM24.348,67.71H6.559a3.34,3.34,0,0,1-3.335-3.335V61.039h24.46v3.335A3.34,3.34,0,0,1,24.348,67.71ZM55.48,43.25A12.225,12.225,0,0,1,65.626,62.3a9.927,9.927,0,0,0-5.743-5.158,6.672,6.672,0,1,0-8.807,0A9.937,9.937,0,0,0,45.334,62.3,12.223,12.223,0,0,1,55.48,43.25Zm-4.447,8.895a4.447,4.447,0,1,1,4.447,4.447A4.452,4.452,0,0,1,51.032,52.144ZM46.974,64.25a7.728,7.728,0,0,1,7.394-5.435h2.224a7.724,7.724,0,0,1,7.394,5.435,12.184,12.184,0,0,1-17.011,0Z" transform="translate(0)" fill="url(#linear-gradient)"/>
    <path id="Path_2278" data-name="Path 2278" d="M7.224,43.671H22.789a2.226,2.226,0,0,0,2.224-2.224V39.224A2.226,2.226,0,0,0,22.789,37H7.224A2.226,2.226,0,0,0,5,39.224v2.224A2.226,2.226,0,0,0,7.224,43.671Zm0-4.447H22.789v2.224H7.224Z" transform="translate(0.447 4.026)" fill="url(#linear-gradient)"/>
    <path id="Path_2279" data-name="Path 2279" d="M7.224,51.671H22.789a2.226,2.226,0,0,0,2.224-2.224V47.224A2.226,2.226,0,0,0,22.789,45H7.224A2.226,2.226,0,0,0,5,47.224v2.224A2.226,2.226,0,0,0,7.224,51.671Zm0-4.447H22.789v2.224H7.224Z" transform="translate(0.447 4.921)" fill="url(#linear-gradient)"/>
    <path id="Path_2280" data-name="Path 2280" d="M21,57h2.224v2.224H21Z" transform="translate(2.237 6.263)" fill="url(#linear-gradient)"/>
    <path id="Path_2281" data-name="Path 2281" d="M17,57h2.224v2.224H17Z" transform="translate(1.789 6.263)" fill="url(#linear-gradient)"/>
    <path id="Path_2282" data-name="Path 2282" d="M13,57h2.224v2.224H13Z" transform="translate(1.342 6.263)" fill="url(#linear-gradient)"/>
    <path id="Path_2283" data-name="Path 2283" d="M16.335,22.559h2.224A5.565,5.565,0,0,0,13,17v2.224A3.34,3.34,0,0,1,16.335,22.559Z" transform="translate(1.342 1.789)" fill="url(#linear-gradient)"/>
    <path id="Path_2284" data-name="Path 2284" d="M36.962,11.175A11.061,11.061,0,0,0,27,5V7.224a8.849,8.849,0,0,1,7.971,4.942Z" transform="translate(2.908 0.447)" fill="url(#linear-gradient)"/>
    <path id="Path_2285" data-name="Path 2285" d="M45.335,16A3.34,3.34,0,0,1,42,19.335v2.224A5.565,5.565,0,0,0,47.559,16Z" transform="translate(4.585 1.677)" fill="url(#linear-gradient)"/>
    <path id="Path_2286" data-name="Path 2286" d="M13,25h2.224v2.224H13Z" transform="translate(1.342 2.684)" fill="url(#linear-gradient)"/>
    <path id="Path_2287" data-name="Path 2287" d="M17,25h2.224v2.224H17Z" transform="translate(1.789 2.684)" fill="url(#linear-gradient)"/>
    <path id="Path_2288" data-name="Path 2288" d="M21,25h2.224v2.224H21Z" transform="translate(2.237 2.684)" fill="url(#linear-gradient)"/>
  </g>
</svg>
