<svg id="data" xmlns="http://www.w3.org/2000/svg" width="68.934" height="68.934" viewBox="0 0 68.934 68.934">
  <path id="Path_2360" data-name="Path 2360" d="M48,160h4.447v2.224H48Zm0,0" transform="translate(-41.329 -137.763)" fill="#fff"/>
  <path id="Path_2361" data-name="Path 2361" d="M65.6,17.789a3.34,3.34,0,0,0,3.335-3.335V3.335A3.34,3.34,0,0,0,65.6,0H50.032A3.34,3.34,0,0,0,46.7,3.335V14.454a3.34,3.34,0,0,0,3.335,3.335h3.335v2.224H51.144v2.224H56.7V33.355H52.115a7.774,7.774,0,0,0-3.2-1.894c.005-.112.008-.221.008-.33a8.888,8.888,0,0,0-16.386-4.78,8.848,8.848,0,0,0-3.627-.78A8.944,8.944,0,0,0,20.6,31.309a7.729,7.729,0,0,0-2.347.934H10.006V28.908h4.447a3.34,3.34,0,0,0,3.335-3.335V3.336A3.34,3.34,0,0,0,14.454,0H3.335A3.34,3.34,0,0,0,0,3.336V25.572a3.34,3.34,0,0,0,3.335,3.335H7.783v5.559h8.1A7.74,7.74,0,0,0,14.8,36.69h-4.8v12.23H5.559a3.34,3.34,0,0,0-3.335,3.335V62.263H0V65.6a3.34,3.34,0,0,0,3.335,3.335H21.125A3.34,3.34,0,0,0,24.46,65.6V62.263H22.237V52.256A3.34,3.34,0,0,0,18.9,48.921H12.23V38.914h2.224A7.793,7.793,0,0,0,22.237,46.7H46.7a7.789,7.789,0,0,0,7.694-6.671h4.536v8.895H51.144V68.934H68.934V48.921H61.151V37.8H54.386a7.7,7.7,0,0,0-.692-2.224h5.232V22.237h5.559V20.013H62.263V17.789Zm-50.032,0H2.224V6.671H15.566ZM3.335,2.224H14.454a1.113,1.113,0,0,1,1.112,1.112V4.447H2.224V3.335A1.113,1.113,0,0,1,3.335,2.224ZM2.224,25.572V20.013H15.566v5.559a1.113,1.113,0,0,1-1.112,1.112H3.335A1.113,1.113,0,0,1,2.224,25.572ZM22.237,65.6a1.113,1.113,0,0,1-1.112,1.112H3.335A1.113,1.113,0,0,1,2.224,65.6V64.486H22.237ZM20.013,52.256V62.263H4.447V52.256a1.113,1.113,0,0,1,1.112-1.112H18.9A1.113,1.113,0,0,1,20.013,52.256ZM53.368,66.71V60.039H66.71V66.71ZM66.71,57.815H53.368V51.144H66.71ZM46.7,44.473H22.237A5.557,5.557,0,0,1,21.569,33.4l.73-.088.206-.706A6.652,6.652,0,0,1,32.4,28.791l1.061.655.529-1.131A6.656,6.656,0,0,1,46.609,32.16l-.168,1.1,1.1.167A5.556,5.556,0,0,1,46.7,44.473Zm3.335-42.25H65.6A1.113,1.113,0,0,1,66.71,3.335v7.783H48.921V3.335A1.113,1.113,0,0,1,50.032,2.224Zm-1.112,12.23V13.342H66.71v1.112A1.113,1.113,0,0,1,65.6,15.566H50.032A1.113,1.113,0,0,1,48.921,14.454Zm11.118,5.559H55.592V17.789h4.447Zm0,0" fill="#fff"/>
  <path id="Path_2362" data-name="Path 2362" d="M400,384h2.224v2.224H400Zm0,0" transform="translate(-344.408 -330.632)" fill="#fff"/>
  <path id="Path_2363" data-name="Path 2363" d="M448,448h2.224v2.224H448Zm0,0" transform="translate(-385.737 -385.737)" fill="#fff"/>
  <path id="Path_2364" data-name="Path 2364" d="M432,384h4.447v2.224H432Zm0,0" transform="translate(-371.961 -330.632)" fill="#fff"/>
  <path id="Path_2365" data-name="Path 2365" d="M400,448h4.447v2.224H400Zm0,0" transform="translate(-344.408 -385.737)" fill="#fff"/>
</svg>
