<svg xmlns="http://www.w3.org/2000/svg" width="68.475" height="68.934" viewBox="0 0 68.475 68.934">
  <g id="process" transform="translate(-1 -0.584)">
    <path id="Path_2388" data-name="Path 2388" d="M55.233,8.293l-6.95,6.95-1.428-1.428-1.562,1.562,2.99,2.99,8.512-8.512Z" transform="translate(4.625 0.805)" fill="#fff"/>
    <path id="Path_2389" data-name="Path 2389" d="M50.835,42a8.835,8.835,0,1,0,8.835,8.835A8.846,8.846,0,0,0,50.835,42Zm0,15.462a6.627,6.627,0,1,1,6.627-6.627A6.633,6.633,0,0,1,50.835,57.462Z" transform="translate(4.281 4.325)" fill="#fff"/>
    <path id="Path_2390" data-name="Path 2390" d="M50.418,46a4.418,4.418,0,1,0,4.418,4.418A4.422,4.422,0,0,0,50.418,46Zm0,6.627a2.209,2.209,0,1,1,2.209-2.209A2.211,2.211,0,0,1,50.418,52.627Z" transform="translate(4.699 4.742)" fill="#fff"/>
    <path id="Path_2391" data-name="Path 2391" d="M69.474,59.255v-8.19l-2.017-.711q-.1-.262-.216-.52l.923-1.932-5.792-5.789-1.931.923c-.173-.076-.347-.149-.52-.216l-.71-2.017H56.221V25.219a5.448,5.448,0,0,0,1.554-.558c3.826-2.105,8.386-5.231,8.386-8.156,0-3.428-2.159-11.025-2.252-11.347l-.229-.8h-.833a9.5,9.5,0,0,1-6.76-2.8L55.117.584l-.97.973a9.5,9.5,0,0,1-6.761,2.8h-.833l-.229.8A82.966,82.966,0,0,0,44.261,14.3H37.719A18.775,18.775,0,1,0,8.828,35.074l1.289-1.792a16.544,16.544,0,0,1-3.554-3.523h4.763a20.5,20.5,0,0,0,1.864,4.2,12.162,12.162,0,0,0-1.927,1.568l1.562,1.562a9.949,9.949,0,0,1,14.057,0l1.562-1.562A12.165,12.165,0,0,0,26.4,33.889a20.542,20.542,0,0,0,1.823-4.131h4.763a16.536,16.536,0,0,1-3.6,3.555l1.283,1.8a18.634,18.634,0,0,0,7.57-18.605h5.832c0,2.926,4.56,6.051,8.387,8.157a5.474,5.474,0,0,0,1.553.558V40.8H51.021l-.712,2.017q-.26.1-.52.216l-1.931-.923L42.067,47.9l.923,1.932c-.076.171-.148.346-.216.52l-2.014.711v2.991H33.028V48.534a3.317,3.317,0,0,0-3.313-3.313H22.964a3.276,3.276,0,0,0,.2-1.1,3.313,3.313,0,1,0-6.627,0,3.276,3.276,0,0,0,.2,1.1H9.835a3.317,3.317,0,0,0-3.313,3.313V61.787A3.317,3.317,0,0,0,9.835,65.1h4.418v2.209H12.044v2.209H27.506V67.309H25.3V65.1h4.418a3.317,3.317,0,0,0,3.313-3.313V56.265h7.731v2.991l2.017.711q.1.262.216.52l-.923,1.932,5.792,5.789,1.931-.923c.173.076.347.149.52.216l.71,2.017h8.189l.712-2.017q.26-.1.52-.216l1.931.923,5.792-5.789-.923-1.932c.076-.171.148-.346.216-.52ZM29.686,18.714a33.592,33.592,0,0,0-.831-6.627h5.56a16.431,16.431,0,0,1,1.87,6.627Zm-26.421,0a16.431,16.431,0,0,1,1.87-6.627h5.56a33.592,33.592,0,0,0-.831,6.627Zm8.806,0a31.325,31.325,0,0,1,.9-6.627H26.577a31.325,31.325,0,0,1,.9,6.627Zm15.4,2.209a31.23,31.23,0,0,1-.892,6.627H12.97a31.211,31.211,0,0,1-.892-6.627Zm-7.7-17.671c2.465,0,4.7,2.636,6.125,6.627H13.65C15.077,5.889,17.31,3.252,19.775,3.252ZM33,9.879H28.239a18.394,18.394,0,0,0-2.834-5.62A16.618,16.618,0,0,1,33,9.879ZM14.145,4.258a18.394,18.394,0,0,0-2.834,5.62H6.553A16.618,16.618,0,0,1,14.145,4.258Zm-9,23.291a16.559,16.559,0,0,1-1.866-6.627H9.87a33.742,33.742,0,0,0,.847,6.627Zm19.3,5.316a12.215,12.215,0,0,0-9.29.056,17.147,17.147,0,0,1-1.5-3.164H25.9A17.235,17.235,0,0,1,24.438,32.865Zm4.4-5.316a33.681,33.681,0,0,0,.847-6.627h6.593a16.563,16.563,0,0,1-1.863,6.627ZM46.281,16.505c0-2.527,1.407-7.956,1.954-9.97a11.663,11.663,0,0,0,6.882-2.864A11.668,11.668,0,0,0,62,6.536c.547,2.013,1.954,7.443,1.954,9.97,0,1.112-2.24,3.468-7.243,6.222a3.4,3.4,0,0,1-3.185,0c-5-2.754-7.243-5.11-7.243-6.222ZM18.749,44.116a1.1,1.1,0,1,1,1.1,1.1A1.106,1.106,0,0,1,18.749,44.116ZM9.835,47.429h19.88a1.106,1.106,0,0,1,1.1,1.1v9.94H8.731v-9.94a1.106,1.106,0,0,1,1.1-1.1Zm13.253,19.88H16.462V65.1h6.627Zm6.627-4.418H9.835a1.106,1.106,0,0,1-1.1-1.1v-1.1H30.819v1.1A1.106,1.106,0,0,1,29.715,62.891Zm37.55-5.2-1.537.542-.173.506a10.76,10.76,0,0,1-.527,1.266l-.236.482.7,1.474-3.581,3.581-1.473-.706-.48.236A10.868,10.868,0,0,1,58.7,65.6l-.506.172-.542,1.537H52.584l-.542-1.538-.506-.172a10.868,10.868,0,0,1-1.266-.527l-.48-.236-1.473.706L44.736,61.96l.7-1.474L45.2,60a10.76,10.76,0,0,1-.527-1.266l-.173-.506-1.536-.541V52.629l1.537-.542.173-.506a10.759,10.759,0,0,1,.527-1.266l.236-.482-.7-1.474,3.581-3.581,1.473.706.48-.236a10.868,10.868,0,0,1,1.266-.527l.506-.172.542-1.537h5.064l.542,1.538.506.172a10.867,10.867,0,0,1,1.266.527l.48.236,1.473-.706L65.5,48.36l-.7,1.474.236.482a10.758,10.758,0,0,1,.527,1.266l.173.506,1.536.541Z" fill="#fff"/>
    <path id="Path_2392" data-name="Path 2392" d="M22.492,36.827l1.562-1.562a7.728,7.728,0,0,0-10.933,0l1.562,1.562a5.521,5.521,0,0,1,7.809,0Z" transform="translate(1.266 3.385)" fill="#fff"/>
  </g>
</svg>
