<svg xmlns="http://www.w3.org/2000/svg" xmlns:xlink="http://www.w3.org/1999/xlink" width="68.933" height="68.934" viewBox="0 0 68.933 68.934">
  <defs>
    <linearGradient id="linear-gradient" x1="0.657" y1="0.205" x2="0.972" y2="1.162" gradientUnits="objectBoundingBox">
      <stop offset="0" stop-color="#2b5e8a"/>
      <stop offset="0.527" stop-color="#3d7ab0"/>
      <stop offset="1" stop-color="#8bb1d1"/>
    </linearGradient>
  </defs>
  <g id="Out_line" data-name="Out line" transform="translate(-16 -16)">
    <path id="Path_2384" data-name="Path 2384" d="M174.7,292.194A3.447,3.447,0,0,0,171.339,288h-21a3.426,3.426,0,0,0-3.365,2.7l-.881,3.966,2.243.5.881-3.966a1.142,1.142,0,0,1,1.122-.9h16.538A1.149,1.149,0,0,1,168,291.7l-3.574,16.084a1.142,1.142,0,0,1-1.122.9H146.763a1.149,1.149,0,0,1-1.122-1.4l1.166-5.246-2.243-.5-1.166,5.246a3.434,3.434,0,0,0,.113,1.9H124.368a3.447,3.447,0,1,0,0,6.893H147.3a8.071,8.071,0,0,0-.083,1.149,1.149,1.149,0,0,0,1.149,1.149h16.085a1.149,1.149,0,0,0,1.149-1.149,8.069,8.069,0,0,0-.083-1.149h2.947a3.445,3.445,0,0,0,2.17-6.122,3.469,3.469,0,0,0,.5-1.172Zm-8.038,16.085,3.574-16.085a3.434,3.434,0,0,0-.113-1.9h1.212a1.149,1.149,0,0,1,1.122,1.4l-3.574,16.084a1.142,1.142,0,0,1-1.122.9h-1.216a3.524,3.524,0,0,0,.118-.4Zm-43.447,3.848a1.15,1.15,0,0,1,1.149-1.149H140.65a3.438,3.438,0,0,0,0,2.3H124.368A1.15,1.15,0,0,1,123.219,312.127Zm24.772,1.149H143.9a1.149,1.149,0,0,1,0-2.3h5.736a8.079,8.079,0,0,0-1.644,2.3Zm7.265-2.3h2.3v4.6h-7.927A5.755,5.755,0,0,1,155.256,310.978Zm4.6,4.6v-4.114a5.765,5.765,0,0,1,3.331,4.114Zm8.608-2.3h-3.641a8.079,8.079,0,0,0-1.644-2.3h5.285a1.149,1.149,0,0,1,0,2.3Z" transform="translate(-89.853 -232.937)" fill="url(#linear-gradient)"/>
    <path id="Path_2385" data-name="Path 2385" d="M33.233,127.572a1.149,1.149,0,0,0,1.149,1.149H65.4v-2.3H35.531v-5.781A18.382,18.382,0,0,0,46.638,88.595L45.1,90.307a16.071,16.071,0,0,1,.881,23.116l-1.1-1.1.924-2.773a1.149,1.149,0,0,0-.134-1L43.9,105.889l1.632-1.632a1.152,1.152,0,0,0,.278-.449l1.149-3.447a1.149,1.149,0,0,0-.062-.877l-1.149-2.3a1.149,1.149,0,0,0-1.028-.635H41.276v2.3h2.737l.618,1.237-.913,2.738-2.106,2.106a1.149,1.149,0,0,0-.143,1.45l1.986,2.979-.971,2.914a1.149,1.149,0,0,0,.278,1.176l1.518,1.518a16.052,16.052,0,0,1-20.826-.881l1.3-2.6h3.886a1.149,1.149,0,0,0,1.028-.635l1.149-2.3a1.149,1.149,0,0,0-.6-1.581l-5.022-2.009v-3.818a1.149,1.149,0,0,0-.635-1.028l-1.407-.7.449-1.345,3.464,1.386.853-2.133-4.6-1.838a1.149,1.149,0,0,0-1.517.7l-1.149,3.447a1.149,1.149,0,0,0,.576,1.391l1.663.831v3.886a1.149,1.149,0,0,0,.722,1.067l4.585,1.834-.273.546H24.042a1.149,1.149,0,0,0-1.028.635l-1.23,2.46A16.07,16.07,0,0,1,23.66,90.307l-1.533-1.712a18.382,18.382,0,0,0,11.106,32.047Z" transform="translate(0 -62.169)" fill="url(#linear-gradient)"/>
    <path id="Path_2386" data-name="Path 2386" d="M89.191,41.276a1.149,1.149,0,0,0,.912-.45c.847-1.106,8.279-10.939,8.279-15.634a9.191,9.191,0,0,0-18.382,0c0,4.7,7.432,14.529,8.279,15.634A1.149,1.149,0,0,0,89.191,41.276ZM82.3,25.191a6.893,6.893,0,1,1,13.787,0c0,2.923-4.364,9.533-6.891,13.008-.764-1.054-1.912-2.686-3.053-4.489C82.8,28.424,82.3,26.1,82.3,25.191Z" transform="translate(-54.809)" fill="url(#linear-gradient)"/>
    <path id="Path_2387" data-name="Path 2387" d="M121.191,52.6a4.6,4.6,0,1,0-4.6,4.6A4.6,4.6,0,0,0,121.191,52.6Zm-4.6,2.3a2.3,2.3,0,1,1,2.3-2.3,2.3,2.3,0,0,1-2.3,2.3Z" transform="translate(-82.213 -27.404)" fill="url(#linear-gradient)"/>
  </g>
</svg>
