<svg xmlns="http://www.w3.org/2000/svg" xmlns:xlink="http://www.w3.org/1999/xlink" width="68.935" height="68.934" viewBox="0 0 68.935 68.934">
  <defs>
    <linearGradient id="linear-gradient" x1="0.657" y1="0.205" x2="0.972" y2="1.162" gradientUnits="objectBoundingBox">
      <stop offset="0" stop-color="#2b5e8a"/>
      <stop offset="0.527" stop-color="#3d7ab0"/>
      <stop offset="1" stop-color="#8bb1d1"/>
    </linearGradient>
  </defs>
  <g id="machine-learning" transform="translate(-2 -2)">
    <path id="Path_2393" data-name="Path 2393" d="M25.19,27.531H14.638a1.146,1.146,0,0,0-.812.337L9.567,32.127H8.682a3.447,3.447,0,1,0,0,2.3h1.36a1.146,1.146,0,0,0,.812-.337l4.259-4.259H25.19a3.412,3.412,0,0,0,5.5,1.425l4.682,2.6a3.4,3.4,0,0,0-.057.566,3.447,3.447,0,0,0,6.893,0,3.4,3.4,0,0,0-.057-.566l4.682-2.6a3.417,3.417,0,0,0,2.269.873,3.438,3.438,0,0,0,1.149-6.682v-5.02a3.436,3.436,0,1,0-3.418-5.809l-4.682-2.6a3.378,3.378,0,0,0,.057-.565,3.447,3.447,0,1,0-6.893,0,3.4,3.4,0,0,0,.057.566l-4.682,2.6a3.412,3.412,0,0,0-5.5,1.425H15.114l-4.259-4.259a1.146,1.146,0,0,0-.812-.337H8.682a3.447,3.447,0,1,0,0,2.3h.885L13.826,18a1.146,1.146,0,0,0,.812.337H25.19a3.443,3.443,0,0,0,2.086,2.086v1.36H8.682a3.447,3.447,0,1,0,0,2.3H27.276v1.36a3.443,3.443,0,0,0-2.086,2.086ZM5.447,34.425A1.149,1.149,0,1,1,6.6,33.276,1.151,1.151,0,0,1,5.447,34.425Zm0-20.68A1.149,1.149,0,1,1,6.6,12.6,1.151,1.151,0,0,1,5.447,13.745Zm0,10.34A1.149,1.149,0,1,1,6.6,22.936,1.151,1.151,0,0,1,5.447,24.085Zm22.978,5.745a1.149,1.149,0,1,1,1.149-1.149A1.151,1.151,0,0,1,28.425,29.829Zm2.269-10.064,4.682,2.6a2.821,2.821,0,0,0,0,1.133l-4.682,2.6a3.453,3.453,0,0,0-1.12-.662v-5.02a3.4,3.4,0,0,0,1.12-.661Zm16.142,6.342-4.682-2.6a2.821,2.821,0,0,0,0-1.133l4.682-2.6a3.453,3.453,0,0,0,1.12.662v5.02A3.4,3.4,0,0,0,46.836,26.107ZM31.814,28.114l4.682-2.6a3.453,3.453,0,0,0,1.12.662v5.02a3.421,3.421,0,0,0-1.12.662l-4.682-2.6a2.827,2.827,0,0,0,0-1.134Zm6.951-6.327a1.149,1.149,0,1,1-1.149,1.149A1.151,1.151,0,0,1,38.765,21.787Zm1.149,4.384a3.421,3.421,0,0,0,1.12-.662l4.682,2.6a2.821,2.821,0,0,0,0,1.133l-4.682,2.6a3.453,3.453,0,0,0-1.12-.662Zm5.8-8.413-4.682,2.6a3.453,3.453,0,0,0-1.12-.662v-5.02a3.421,3.421,0,0,0,1.12-.662l4.682,2.6a2.827,2.827,0,0,0,0,1.134Zm-8.1,1.943a3.421,3.421,0,0,0-1.12.662l-4.682-2.6a2.821,2.821,0,0,0,0-1.133l4.682-2.6a3.453,3.453,0,0,0,1.12.662Zm1.149,15.873a1.149,1.149,0,1,1,1.149-1.149A1.151,1.151,0,0,1,38.765,35.574Zm10.34-5.745a1.149,1.149,0,1,1,1.149-1.149A1.151,1.151,0,0,1,49.105,29.829Zm0-13.787a1.149,1.149,0,1,1-1.149,1.149A1.151,1.151,0,0,1,49.105,16.042ZM38.765,10.3a1.149,1.149,0,1,1-1.149,1.149A1.151,1.151,0,0,1,38.765,10.3Zm-10.34,5.745a1.149,1.149,0,1,1-1.149,1.149A1.151,1.151,0,0,1,28.425,16.042Z" transform="translate(0 0.893)" fill="url(#linear-gradient)"/>
    <path id="Path_2394" data-name="Path 2394" d="M24.527,70.934H42.91a1.149,1.149,0,0,0,1.149-1.149V61.743H58.994a1.149,1.149,0,0,0,1.149-1.149V46.807h8.042a1.15,1.15,0,0,0,1.1-1.492l-5.728-18.33A25.835,25.835,0,0,0,36.187,2.046a25.953,25.953,0,0,0-20.21,11.972l1.935,1.24A23.651,23.651,0,0,1,36.323,4.339,23.538,23.538,0,0,1,61.264,27.332a1.1,1.1,0,0,0,.162.548l5.2,16.629H58.994a1.149,1.149,0,0,0-1.149,1.149v4.6H54.4a3.451,3.451,0,0,1-3.447-3.447h-2.3A5.751,5.751,0,0,0,54.4,52.552h3.447v6.893H42.91a1.149,1.149,0,0,0-1.149,1.149v8.042H25.676V67.526a53.13,53.13,0,0,0-8.081-27.488,23.34,23.34,0,0,1-2.628-6.163l-2.222.588a25.64,25.64,0,0,0,2.886,6.769,50.842,50.842,0,0,1,7.747,26.293v2.26a1.149,1.149,0,0,0,1.149,1.149Z" transform="translate(1.6 0)" fill="url(#linear-gradient)"/>
  </g>
</svg>
