<svg xmlns="http://www.w3.org/2000/svg" width="64.624" height="68.934" viewBox="0 0 64.624 68.934">
  <g id="insurance" transform="translate(-2.001)">
    <path id="Path_2306" data-name="Path 2306" d="M63.392,0H18.154A2.156,2.156,0,0,0,16,2.154V17.233h2.154V2.154h8.617V6.463H21.385A1.077,1.077,0,0,0,20.308,7.54v9.694h2.154V8.617h4.308v2.154a2.156,2.156,0,0,0,2.154,2.154h23.7a2.156,2.156,0,0,0,2.154-2.154V8.617h4.308v25.85h2.154V7.54a1.077,1.077,0,0,0-1.077-1.077H54.775V2.154h8.617V66.779H18.154V60.317H16v7.54a1.077,1.077,0,0,0,1.077,1.077H63.392a2.156,2.156,0,0,0,2.154-2.154V2.154A2.156,2.156,0,0,0,63.392,0ZM52.621,10.771h-23.7V2.154h23.7Z" transform="translate(1.079)" fill="#fff"/>
    <path id="Path_2307" data-name="Path 2307" d="M60.929,34H58.775V49.079H48a1.077,1.077,0,0,0-1.077,1.077V59.85H22.154V57.7H20v3.231A1.077,1.077,0,0,0,21.077,62H48a1.119,1.119,0,0,0,.148-.01l.032-.005.017,0,.02,0a.212.212,0,0,0,.028-.006l.009,0c.029-.008.058-.015.087-.025h0a.9.9,0,0,0,.089-.034h0a.919.919,0,0,0,.086-.043h0l.04-.024.016-.011.026-.017.013-.01.027-.019.025-.019.015-.012.039-.033L60.577,50.951c.018-.016.036-.033.052-.051l.014-.015c.014-.015.028-.031.041-.047l.008-.009c.015-.018.029-.038.042-.056l.012-.017c.011-.015.02-.031.03-.047a.108.108,0,0,0,.009-.015.667.667,0,0,0,.032-.061c0-.005.005-.012.009-.017l.023-.051c0-.006.005-.012.008-.018.009-.022.016-.044.024-.067l0-.01c.006-.02.012-.041.017-.061a.089.089,0,0,1,0-.016,1.072,1.072,0,0,0,.023-.143c0-.005,0-.012,0-.017l0-.06V34ZM49.081,51.233h7.984l-5.23,4.755-2.754,2.5Z" transform="translate(1.388 2.621)" fill="#fff"/>
    <path id="Path_2308" data-name="Path 2308" d="M30,5h2.154V7.154H30Z" transform="translate(2.158 0.385)" fill="#fff"/>
    <path id="Path_2309" data-name="Path 2309" d="M46,5h2.154V7.154H46Z" transform="translate(3.392 0.385)" fill="#fff"/>
    <path id="Path_2310" data-name="Path 2310" d="M52.85,16H28.077A1.077,1.077,0,0,0,27,17.077v4.308h2.154V18.154H51.773V33.233H35.617v2.154H52.85a1.077,1.077,0,0,0,1.077-1.077V17.077A1.077,1.077,0,0,0,52.85,16Z" transform="translate(1.927 1.233)" fill="#fff"/>
    <path id="Path_2311" data-name="Path 2311" d="M34,38H45.848v2.154H34Z" transform="translate(2.467 2.929)" fill="#fff"/>
    <path id="Path_2312" data-name="Path 2312" d="M47,38h6.463v2.154H47Z" transform="translate(3.469 2.929)" fill="#fff"/>
    <path id="Path_2313" data-name="Path 2313" d="M31,44H42.848v2.154H31Z" transform="translate(2.235 3.392)" fill="#fff"/>
    <path id="Path_2314" data-name="Path 2314" d="M44,44h9.694v2.154H44Z" transform="translate(3.238 3.392)" fill="#fff"/>
    <path id="Path_2315" data-name="Path 2315" d="M26,50H44.31v2.154H26Z" transform="translate(1.85 3.854)" fill="#fff"/>
    <path id="Path_2316" data-name="Path 2316" d="M34,5H44.771V7.154H34Z" transform="translate(2.467 0.385)" fill="#fff"/>
    <path id="Path_2317" data-name="Path 2317" d="M19.233,56.775a1.072,1.072,0,0,0,.646-.215l4.753-3.565A26.832,26.832,0,0,0,34.994,36.133l1.456-8.252a1.077,1.077,0,0,0-.554-1.137L19.741,18.127a1.076,1.076,0,0,0-1.014,0L2.571,26.744a1.077,1.077,0,0,0-.554,1.137l1.444,8.193A26.851,26.851,0,0,0,13.69,52.838l4.893,3.718a1.076,1.076,0,0,0,.651.219ZM5.582,35.7,4.274,28.276,19.233,20.3l14.96,7.979-1.321,7.481A24.687,24.687,0,0,1,23.34,51.271l-4.1,3.077-4.246-3.226A24.7,24.7,0,0,1,5.582,35.7Z" transform="translate(0 1.388)" fill="#fff"/>
    <path id="Path_2318" data-name="Path 2318" d="M23.056,48.362a19.966,19.966,0,0,0,7.709-12.545l1.068-6.051a1.077,1.077,0,0,0-.554-1.137l-5.388-2.874-1.014,1.9,4.7,2.506-.933,5.281a17.821,17.821,0,0,1-6.879,11.2l-2.835,2.126-2.94-2.235A17.827,17.827,0,0,1,9.2,35.4l-.925-5.24,4.7-2.505-1.014-1.9L6.57,28.628a1.077,1.077,0,0,0-.554,1.137l1.059,6.008a19.982,19.982,0,0,0,7.61,12.473l3.589,2.726a1.077,1.077,0,0,0,1.3,0Z" transform="translate(0.308 1.985)" fill="#fff"/>
    <path id="Path_2319" data-name="Path 2319" d="M18.344,24.736l3.8,2.028,1.014-1.9-4.311-2.3a1.076,1.076,0,0,0-1.014,0l-4.307,2.3,1.014,1.9Z" transform="translate(0.889 1.73)" fill="#fff"/>
    <path id="Path_2320" data-name="Path 2320" d="M17.252,40.745h.041a1.076,1.076,0,0,0,.81-.367l7.54-8.617-1.621-1.419-6.665,7.617-2.433-3.246L13.2,36.005l3.231,4.308a1.081,1.081,0,0,0,.821.431Z" transform="translate(0.863 2.339)" fill="#fff"/>
    <path id="Path_2321" data-name="Path 2321" d="M17,28h2.154v2.154H17Z" transform="translate(1.156 2.158)" fill="#fff"/>
    <path id="Path_2322" data-name="Path 2322" d="M17,42h2.154v2.154H17Z" transform="translate(1.156 3.238)" fill="#fff"/>
  </g>
</svg>
