<svg xmlns="http://www.w3.org/2000/svg" xmlns:xlink="http://www.w3.org/1999/xlink" width="97.629" height="97.629" viewBox="0 0 97.629 97.629">
  <defs>
    <linearGradient id="linear-gradient" x1="0.657" y1="0.205" x2="0.972" y2="1.162" gradientUnits="objectBoundingBox">
      <stop offset="0" stop-color="#2b5e8a"/>
      <stop offset="0.527" stop-color="#3d7ab0"/>
      <stop offset="1" stop-color="#8bb1d1"/>
    </linearGradient>
  </defs>
  <g id="human" transform="translate(-1 -1)">
    <path id="Path_2401" data-name="Path 2401" d="M93.668,65.776a12.506,12.506,0,0,0-5.012-2.241l-4.488-.9-.5-2.012a9.465,9.465,0,0,0,3.619-5.255l.8-.762A13.68,13.68,0,0,0,92.331,44.7a12.143,12.143,0,0,0-3.149-8.155v-.9A9.453,9.453,0,0,0,83.018,26.8a9.463,9.463,0,0,0,2.5-3.858,7.856,7.856,0,1,0-7.45-12.361,9.429,9.429,0,0,0-7.924,16.216,9.391,9.391,0,0,0-4.937,4.231,19.069,19.069,0,0,0-2.8-3.127v-1.7a9.453,9.453,0,0,0-6.163-8.846,9.448,9.448,0,1,0-12.868,0,9.453,9.453,0,0,0-6.163,8.846v1.7a19.059,19.059,0,0,0-2.8,3.126,9.4,9.4,0,0,0-4.938-4.231,9.447,9.447,0,1,0-12.87,0,9.468,9.468,0,0,0-5.637,5.825,4.726,4.726,0,0,0-3.675,4.6V44.7a13.686,13.686,0,0,0,4.245,9.906l.8.764a9.47,9.47,0,0,0,3.619,5.255l-.5,2.012-4.488.9A12.409,12.409,0,0,0,1,75.7V98.629H98.629V75.7A12.473,12.473,0,0,0,93.668,65.776ZM30.6,55.372l.323-.309v7.9c-.142.091-.288.176-.427.272l-3.012-.6-.5-2.012A9.47,9.47,0,0,0,30.6,55.372ZM26.525,65.659l.992.2a16.909,16.909,0,0,0-1.441,1.822L24.6,66.942Zm-5.494,6.2-.784-2.351,1.224-.613,3.072,1.535q-.309.7-.557,1.427H21.031Zm-3.63-.929.794,2.382-.45.9-1.466-2.723Zm3.467,4.078h2.367a17.735,17.735,0,0,0-.191,2.486v.715l-1.575,2.924-1.9-3.529Zm2.176,9.845.326-.6a3.143,3.143,0,0,0,2.823,1.783V95.48H23.045Zm6.3,1.178h3.822a19.51,19.51,0,0,0,.71,2.184l1.767,4.417V95.48h-6.3ZM36.8,87.046a16.186,16.186,0,0,1-.329-11.122l.665-1.992-2.986-1-.666,1.992a19.343,19.343,0,0,0-.99,6.111q0,.928.088,1.844H26.195V77.5A14.1,14.1,0,0,1,38.213,63.488l.2-.031L48.24,81.7V95.48H38.792V92.028ZM49.815,36.641a15.167,15.167,0,0,0,8.407,4.809l1.041.208v5.337a9.129,9.129,0,0,1-9.117,9.119h-.277a9.487,9.487,0,0,1-9.5-9.451v-5l1.041-.208a15.167,15.167,0,0,0,8.407-4.809ZM46.336,58.754a12.7,12.7,0,0,0,3.532.509h.277a12.25,12.25,0,0,0,3.17-.43,6.233,6.233,0,0,0,4.614,4.085L54.81,68.711H44.82L41.7,62.918a6.226,6.226,0,0,0,4.636-4.163Zm3.478,19.233-3.3-6.127h6.6Zm1.575,3.719,9.828-18.249.2.031A14.1,14.1,0,0,1,73.435,77.5v5.387H67.049q.085-.916.087-1.844a19.3,19.3,0,0,0-.992-6.111l-.665-1.992-2.986,1,.663,1.99a16.177,16.177,0,0,1-.328,11.123l-1.992,4.982V95.48H51.389ZM68.711,55.063l.323.307a9.47,9.47,0,0,0,3.619,5.255l-.5,2.012-3.012.6c-.139-.1-.285-.181-.427-.272ZM78.6,71.86H75.644q-.248-.73-.557-1.427L78.159,68.9l1.224.613Zm-5.045-4.182a17.308,17.308,0,0,0-1.441-1.822l.992-.2,1.924,1.282ZM63.987,92.633l1.767-4.417a19.091,19.091,0,0,0,.71-2.184h3.822V95.48h-6.3Zm9.448-6.6a3.143,3.143,0,0,0,2.823-1.783l.326.6V95.48H73.435Zm4.724-4.9-1.575-2.924V77.5a17.5,17.5,0,0,0-.192-2.486h2.367l1.3,2.6Zm3.726-6.919-.45-.9.794-2.382,1.123.562Zm4.289-7.965-1.329,2.468-3.554-1.778,1.924-1.282Zm-5.088-2.959-2.927,1.951-2.927-1.953.313-1.255a9.266,9.266,0,0,0,5.228,0Zm3.371-10.328a6.3,6.3,0,0,1-12.6,0V50.008a4.717,4.717,0,0,1,3.579-4.582l.129-.033a6.981,6.981,0,0,0,3.894,1.924l3.642.521A1.58,1.58,0,0,1,84.457,49.4Zm4.184-4.932a10.527,10.527,0,0,1-1.035,2.192V49.4a4.745,4.745,0,0,0-4.055-4.675L79.91,44.2a3.89,3.89,0,0,1-3.326-3.833H73.435a6.955,6.955,0,0,0,.381,2.271,7.862,7.862,0,0,0-5.105,7.371V41.941a18.864,18.864,0,0,0-.128-2.12,9.074,9.074,0,0,1,7.61-4.179h3.93A9.068,9.068,0,0,1,89.181,44.7a10.5,10.5,0,0,1-.54,3.332ZM79.733,29.344a3.149,3.149,0,1,1-6.3,0Zm6.015,4.533a12.1,12.1,0,0,0-3.823-1.236,6.228,6.228,0,0,0,.872-2.468A6.283,6.283,0,0,1,85.749,33.878Zm-9.165-7.683a6.305,6.305,0,0,1-6.3-6.3h12.6A6.305,6.305,0,0,1,76.584,26.195Zm7.873-15.747a4.7,4.7,0,0,1,1.559,9.144A9.445,9.445,0,0,0,81.264,11.7,4.7,4.7,0,0,1,84.457,10.448ZM76.584,13.6a6.278,6.278,0,0,1,5.423,3.149H71.162A6.274,6.274,0,0,1,76.584,13.6ZM70.367,30.157a6.237,6.237,0,0,0,1.394,3.19,12.293,12.293,0,0,0-4.045,2.59c-.148-.441-.3-.879-.479-1.3a6.254,6.254,0,0,1,3.13-4.477ZM59.2,25.563a18.781,18.781,0,0,0-4.422-1.834,6.224,6.224,0,0,0,1.252-3A6.268,6.268,0,0,1,59.2,25.563ZM46.665,19.9h6.3a3.149,3.149,0,1,1-6.3,0Zm3.149-3.149a6.305,6.305,0,0,1-6.3-6.3h12.6A6.305,6.305,0,0,1,49.815,16.747Zm0-12.6A6.278,6.278,0,0,1,55.238,7.3H44.393A6.274,6.274,0,0,1,49.815,4.149ZM43.6,20.726a6.224,6.224,0,0,0,1.252,3,18.781,18.781,0,0,0-4.422,1.834,6.272,6.272,0,0,1,3.17-4.837Zm6.215,5.469A15.765,15.765,0,0,1,65.561,41.941V61.368a17.552,17.552,0,0,0-3.664-.992L58.784,59.9a3.124,3.124,0,0,1-2.546-2.271A12.266,12.266,0,0,0,62.41,46.994V39.075l-3.573-.715a12.026,12.026,0,0,1-7.45-4.809V29.344H48.238v4.208a12.035,12.035,0,0,1-7.45,4.809l-3.571.715v7.587a12.584,12.584,0,0,0,6.212,10.826A3.125,3.125,0,0,1,40.845,59.9l-3.113.479a17.552,17.552,0,0,0-3.664.992V41.941A15.765,15.765,0,0,1,49.815,26.195ZM32.391,34.633c-.112.265-.2.54-.3.809a11.078,11.078,0,0,0-4.008-2.362,6.228,6.228,0,0,0,1.175-2.926,6.244,6.244,0,0,1,3.13,4.478ZM19.9,29.344h6.3a3.149,3.149,0,1,1-6.3,0Zm3.149-3.149a6.305,6.305,0,0,1-6.3-6.3h12.6A6.305,6.305,0,0,1,23.045,26.195Zm0-12.6a6.278,6.278,0,0,1,5.423,3.149H17.624A6.274,6.274,0,0,1,23.045,13.6ZM16.829,30.15a6.221,6.221,0,0,0,.8,2.343H14.452A6.319,6.319,0,0,1,16.829,30.15Zm-5.84,17.88a10.479,10.479,0,0,1-.54-3.33V37.217a1.576,1.576,0,0,1,1.575-1.575h12.6a7.9,7.9,0,0,1,6.529,3.5,19.035,19.035,0,0,0-.23,2.8v8.067a7.86,7.86,0,0,0-5.105-7.371,6.955,6.955,0,0,0,.381-2.271H23.045A3.892,3.892,0,0,1,19.721,44.2l-3.642.521A4.743,4.743,0,0,0,12.023,49.4v.828A10.539,10.539,0,0,1,10.988,48.031ZM15.172,49.4a1.583,1.583,0,0,1,1.351-1.559l3.642-.521a7,7,0,0,0,3.894-1.924l.131.033a4.72,4.72,0,0,1,3.579,4.584v2.956a6.3,6.3,0,0,1-12.6,0Zm6.3,13.016a9.373,9.373,0,0,0,2.614-.376l.313,1.255-2.927,1.953-2.927-1.953.313-1.255A9.373,9.373,0,0,0,21.471,62.412Zm-5.055,3.247,1.924,1.282-3.554,1.778-1.331-2.468ZM4.149,75.7A9.189,9.189,0,0,1,10.283,67L19.9,84.856V95.48H10.448V78.159H7.3V95.48H4.149ZM95.48,95.48H92.331V78.159H89.181V95.48H79.733V84.856L89.347,67a9.184,9.184,0,0,1,6.133,8.7Z" transform="translate(0 0)" fill="url(#linear-gradient)"/>
    <path id="Path_2402" data-name="Path 2402" d="M34.238,35.981A6.633,6.633,0,0,0,40.2,32.294l.165-.332-2.817-1.409-.165.334a3.521,3.521,0,0,1-6.3,0l-.165-.332-2.817,1.409.165.331A6.633,6.633,0,0,0,34.238,35.981Z" transform="translate(15.577 16.983)" fill="url(#linear-gradient)"/>
  </g>
</svg>
