<svg xmlns="http://www.w3.org/2000/svg" width="68.934" height="68.934" viewBox="0 0 68.934 68.934">
  <g id="lock" transform="translate(-8)">
    <path id="Path_2289" data-name="Path 2289" d="M482.224,464h-1.112a1.112,1.112,0,0,0,0,2.224h1.112a1.112,1.112,0,1,0,0-2.224Z" transform="translate(-406.402 -399.514)" fill="#fff"/>
    <path id="Path_2290" data-name="Path 2290" d="M91.335,160a3.335,3.335,0,1,0,3.336,3.335A3.335,3.335,0,0,0,91.335,160Zm0,4.447a1.112,1.112,0,1,1,1.112-1.112A1.112,1.112,0,0,1,91.335,164.447Z" transform="translate(-68.882 -137.763)" fill="#fff"/>
    <path id="Path_2291" data-name="Path 2291" d="M147.335,160a3.335,3.335,0,1,0,3.336,3.335A3.335,3.335,0,0,0,147.335,160Zm0,4.447a1.112,1.112,0,1,1,1.112-1.112A1.112,1.112,0,0,1,147.335,164.447Z" transform="translate(-117.099 -137.763)" fill="#fff"/>
    <path id="Path_2292" data-name="Path 2292" d="M327.566,161.112A1.112,1.112,0,0,0,326.454,160H313.112a1.112,1.112,0,0,0,0,2.224h13.342A1.112,1.112,0,0,0,327.566,161.112Z" transform="translate(-261.75 -137.763)" fill="#fff"/>
    <path id="Path_2293" data-name="Path 2293" d="M374.671,192h-5.559a1.112,1.112,0,0,0,0,2.224h5.559a1.112,1.112,0,1,0,0-2.224Z" transform="translate(-309.968 -165.316)" fill="#fff"/>
    <path id="Path_2294" data-name="Path 2294" d="M282.224,160h-1.112a1.112,1.112,0,0,0,0,2.224h1.112a1.112,1.112,0,0,0,0-2.224Z" transform="translate(-234.198 -137.763)" fill="#fff"/>
    <path id="Path_2295" data-name="Path 2295" d="M91.335,64a3.335,3.335,0,1,0,3.336,3.335A3.335,3.335,0,0,0,91.335,64Zm0,4.447a1.112,1.112,0,1,1,1.112-1.112A1.112,1.112,0,0,1,91.335,68.447Z" transform="translate(-68.882 -55.105)" fill="#fff"/>
    <path id="Path_2296" data-name="Path 2296" d="M147.335,64a3.335,3.335,0,1,0,3.336,3.335A3.335,3.335,0,0,0,147.335,64Zm0,4.447a1.112,1.112,0,1,1,1.112-1.112A1.112,1.112,0,0,1,147.335,68.447Z" transform="translate(-117.099 -55.105)" fill="#fff"/>
    <path id="Path_2297" data-name="Path 2297" d="M327.566,73.112A1.112,1.112,0,0,0,326.454,72H313.112a1.112,1.112,0,0,0,0,2.224h13.342A1.112,1.112,0,0,0,327.566,73.112Z" transform="translate(-261.75 -61.994)" fill="#fff"/>
    <path id="Path_2298" data-name="Path 2298" d="M374.671,96h-5.559a1.112,1.112,0,0,0,0,2.224h5.559a1.112,1.112,0,1,0,0-2.224Z" transform="translate(-309.968 -82.658)" fill="#fff"/>
    <path id="Path_2299" data-name="Path 2299" d="M282.224,72h-1.112a1.112,1.112,0,0,0,0,2.224h1.112a1.112,1.112,0,0,0,0-2.224Z" transform="translate(-234.198 -61.994)" fill="#fff"/>
    <path id="Path_2300" data-name="Path 2300" d="M91.335,256a3.335,3.335,0,1,0,3.336,3.336A3.335,3.335,0,0,0,91.335,256Zm0,4.447a1.112,1.112,0,1,1,1.112-1.112A1.112,1.112,0,0,1,91.335,260.447Z" transform="translate(-68.882 -220.421)" fill="#fff"/>
    <path id="Path_2301" data-name="Path 2301" d="M147.335,256a3.335,3.335,0,1,0,3.336,3.336A3.335,3.335,0,0,0,147.335,256Zm0,4.447a1.112,1.112,0,1,1,1.112-1.112A1.112,1.112,0,0,1,147.335,260.447Z" transform="translate(-117.099 -220.421)" fill="#fff"/>
    <path id="Path_2302" data-name="Path 2302" d="M320.895,257.112A1.112,1.112,0,0,0,319.783,256h-6.671a1.112,1.112,0,0,0,0,2.224h6.671A1.112,1.112,0,0,0,320.895,257.112Z" transform="translate(-261.75 -220.421)" fill="#fff"/>
    <path id="Path_2303" data-name="Path 2303" d="M282.224,256h-1.112a1.112,1.112,0,0,0,0,2.224h1.112a1.112,1.112,0,0,0,0-2.224Z" transform="translate(-234.198 -220.421)" fill="#fff"/>
    <path id="Path_2304" data-name="Path 2304" d="M72.486,48.921H71.374V42.25a4.429,4.429,0,0,0-1.165-3,1.1,1.1,0,0,0,.053-.339V35.579a4.437,4.437,0,0,0-1.511-3.336,4.436,4.436,0,0,0,1.511-3.335V22.237A4.437,4.437,0,0,0,68.751,18.9a4.436,4.436,0,0,0,1.511-3.335V8.895a4.452,4.452,0,0,0-4.447-4.447H45.8V1.112A1.112,1.112,0,0,0,44.69,0H40.243a1.112,1.112,0,0,0-1.112,1.112V4.447H19.118a4.452,4.452,0,0,0-4.447,4.447v6.671A4.437,4.437,0,0,0,16.182,18.9a4.436,4.436,0,0,0-1.511,3.335v6.671a4.437,4.437,0,0,0,1.511,3.336,4.436,4.436,0,0,0-1.511,3.335V42.25A4.452,4.452,0,0,0,19.118,46.7H41.355V57.815H40.243a1.112,1.112,0,0,0-1.112,1.112v3.335H33.572a1.112,1.112,0,0,0-1.112,1.112v1.112H9.112a1.112,1.112,0,1,0,0,2.224H32.46v1.112a1.112,1.112,0,0,0,1.112,1.112H51.361a1.112,1.112,0,0,0,1.112-1.112V66.71h18.9a1.112,1.112,0,0,0,0-2.224h-18.9V63.374a1.112,1.112,0,0,0-1.112-1.112H45.8V58.927a1.112,1.112,0,0,0-1.112-1.112H43.579V46.7H58.032v2.224H56.921a1.112,1.112,0,0,0-1.112,1.112v12.23a1.112,1.112,0,0,0,1.112,1.112H72.486A1.112,1.112,0,0,0,73.6,62.263V50.032A1.112,1.112,0,0,0,72.486,48.921ZM69.151,42.25v6.671H68.039V42.25a1.112,1.112,0,0,0-1.112-1.112H62.48a1.112,1.112,0,0,0-1.112,1.112v6.671H60.256V42.25a2.227,2.227,0,0,1,2.224-2.224h4.447a2.227,2.227,0,0,1,2.224,2.224Zm-3.335,1.112v5.559H63.592V43.361ZM41.355,2.224h2.224V4.447H41.355ZM16.895,8.895a2.227,2.227,0,0,1,2.224-2.224h46.7a2.227,2.227,0,0,1,2.224,2.224v6.671a2.227,2.227,0,0,1-2.224,2.224h-46.7a2.227,2.227,0,0,1-2.224-2.224Zm0,13.342a2.227,2.227,0,0,1,2.224-2.224h46.7a2.227,2.227,0,0,1,2.224,2.224v6.671a2.227,2.227,0,0,1-2.224,2.224h-46.7a2.227,2.227,0,0,1-2.224-2.224Zm24.46,37.8h2.224v2.224H41.355Zm8.895,4.447V66.71H34.684V64.486ZM19.118,44.473a2.227,2.227,0,0,1-2.224-2.224V35.579a2.227,2.227,0,0,1,2.224-2.224h46.7a2.227,2.227,0,0,1,2.224,2.224v2.364a4.447,4.447,0,0,0-1.112-.14H62.48a4.452,4.452,0,0,0-4.447,4.447v2.224ZM71.374,61.151H58.032V51.144H71.374Z" fill="#fff"/>
    <path id="Path_2305" data-name="Path 2305" d="M395.342,376a3.336,3.336,0,0,0-1.112,6.48v.191a1.112,1.112,0,1,0,2.224,0v-.191a3.336,3.336,0,0,0-1.112-6.48Zm0,4.447a1.112,1.112,0,1,1,1.112-1.112A1.112,1.112,0,0,1,395.342,380.447Z" transform="translate(-330.638 -323.744)" fill="#fff"/>
  </g>
</svg>
