<svg xmlns="http://www.w3.org/2000/svg" xmlns:xlink="http://www.w3.org/1999/xlink" width="95.074" height="95.074" viewBox="0 0 95.074 95.074">
  <defs>
    <linearGradient id="linear-gradient" x1="0.657" y1="0.205" x2="0.972" y2="1.162" gradientUnits="objectBoundingBox">
      <stop offset="0" stop-color="#2b5e8a"/>
      <stop offset="0.527" stop-color="#3d7ab0"/>
      <stop offset="1" stop-color="#8bb1d1"/>
    </linearGradient>
  </defs>
  <g id="dashboard" transform="translate(-1 -1)">
    <path id="Path_360" data-name="Path 360" d="M86.874,52.417V22.346A10.728,10.728,0,1,0,74.606,11.734H1V73.072H47.082A24.52,24.52,0,1,0,86.874,52.417ZM85.34,4.067a7.667,7.667,0,1,1-7.667,7.667A7.676,7.676,0,0,1,85.34,4.067ZM4.067,14.8H75.058a10.727,10.727,0,0,0,1.7,3.351L67.377,27.53a4.44,4.44,0,0,0-3.943,0l-3.09-3.09a4.557,4.557,0,0,0,.46-1.972,4.6,4.6,0,1,0-9.2,0,4.525,4.525,0,0,0,.462,1.97l-7.69,7.69a4.557,4.557,0,0,0-1.972-.46,4.6,4.6,0,1,0,4.6,4.6,4.525,4.525,0,0,0-.462-1.97l7.69-7.69a4.447,4.447,0,0,0,3.943,0l3.09,3.09a4.557,4.557,0,0,0-.46,1.972,4.6,4.6,0,0,0,9.2,0,4.525,4.525,0,0,0-.462-1.97l9.38-9.379a10.669,10.669,0,0,0,4.883,2.027V50.325a24.386,24.386,0,0,0-30.669,5.04V48.537h-9.2v18.4h3.515a24.6,24.6,0,0,0-.37,3.067H4.067ZM65.405,30.136a1.533,1.533,0,1,1-1.533,1.533A1.535,1.535,0,0,1,65.405,30.136ZM54.671,22.468A1.533,1.533,0,1,1,56.2,24,1.535,1.535,0,0,1,54.671,22.468ZM43.937,36.27A1.533,1.533,0,1,1,42.4,34.736,1.535,1.535,0,0,1,43.937,36.27Zm27.6,47.537A12.268,12.268,0,1,1,83.807,71.539,12.282,12.282,0,0,1,71.539,83.807ZM50.071,59.687a24.35,24.35,0,0,0-1.823,4.185H47V51.6h3.067Zm19.935-9.538v6.134a15.3,15.3,0,0,0-12.435,21.55L52.251,80.9A21.395,21.395,0,0,1,70.006,50.149Zm1.533,42.859a21.458,21.458,0,0,1-17.77-9.438l5.341-3.084a15.284,15.284,0,0,0,24.857,0l5.341,3.084A21.458,21.458,0,0,1,71.539,93.007ZM90.827,80.9l-5.32-3.072a15.3,15.3,0,0,0-12.435-21.55V50.149A21.395,21.395,0,0,1,90.827,80.9Z" transform="translate(0 0)" fill="url(#linear-gradient)"/>
    <path id="Path_361" data-name="Path 361" d="M50.2,41a9.2,9.2,0,1,0,9.2,9.2A9.21,9.21,0,0,0,50.2,41Zm0,15.335A6.134,6.134,0,1,1,56.335,50.2,6.14,6.14,0,0,1,50.2,56.335Z" transform="translate(21.338 21.338)" fill="url(#linear-gradient)"/>
    <path id="Path_362" data-name="Path 362" d="M5,12H8.067v3.067H5Z" transform="translate(2.134 5.868)" fill="url(#linear-gradient)"/>
    <path id="Path_363" data-name="Path 363" d="M9,12H30.468v3.067H9Z" transform="translate(4.268 5.868)" fill="url(#linear-gradient)"/>
    <path id="Path_364" data-name="Path 364" d="M5,16H8.067v3.067H5Z" transform="translate(2.134 8.002)" fill="url(#linear-gradient)"/>
    <path id="Path_365" data-name="Path 365" d="M9,16H30.468v3.067H9Z" transform="translate(4.268 8.002)" fill="url(#linear-gradient)"/>
    <path id="Path_366" data-name="Path 366" d="M5,20H8.067v3.067H5Z" transform="translate(2.134 10.136)" fill="url(#linear-gradient)"/>
    <path id="Path_367" data-name="Path 367" d="M9,20H30.468v3.067H9Z" transform="translate(4.268 10.136)" fill="url(#linear-gradient)"/>
    <path id="Path_368" data-name="Path 368" d="M5,24H8.067v3.067H5Z" transform="translate(2.134 12.27)" fill="url(#linear-gradient)"/>
    <path id="Path_369" data-name="Path 369" d="M9,24H30.468v3.067H9Z" transform="translate(4.268 12.27)" fill="url(#linear-gradient)"/>
    <path id="Path_370" data-name="Path 370" d="M5,49.335h9.2V34H5ZM8.067,37.067h3.067v9.2H8.067Z" transform="translate(2.134 17.604)" fill="url(#linear-gradient)"/>
    <path id="Path_371" data-name="Path 371" d="M13,48.268h9.2V36H13Zm3.067-9.2h3.067V45.2H16.067Z" transform="translate(6.401 18.671)" fill="url(#linear-gradient)"/>
    <path id="Path_372" data-name="Path 372" d="M21,52.535h9.2V28H21Zm3.067-21.468h3.067v18.4H24.067Z" transform="translate(10.669 14.403)" fill="url(#linear-gradient)"/>
  </g>
</svg>
