<svg xmlns="http://www.w3.org/2000/svg" xmlns:xlink="http://www.w3.org/1999/xlink" width="97.613" height="97.629" viewBox="0 0 97.613 97.629">
  <defs>
    <linearGradient id="linear-gradient" x1="0.657" y1="0.205" x2="0.972" y2="1.162" gradientUnits="objectBoundingBox">
      <stop offset="0" stop-color="#2b5e8a"/>
      <stop offset="0.527" stop-color="#3d7ab0"/>
      <stop offset="1" stop-color="#8bb1d1"/>
    </linearGradient>
  </defs>
  <g id="XMLID_1258_" transform="translate(-0.043)">
    <g id="XMLID_1850_" transform="translate(0.043)">
      <path id="XMLID_1911_" d="M97.1,41.062a1.909,1.909,0,0,0-1.724-.521L78.941,43.848a1.907,1.907,0,0,0-.972,3.218l2.223,2.223-8.725,8.725L64.712,51.26a1.907,1.907,0,0,0-2.7,0l-8.288,8.289,3.109-11.171A8.952,8.952,0,0,0,51.36,37.6l2.485-7.1c.686.06,1.37.091,2.046.091A23.707,23.707,0,0,0,71.007,25.13l.454-.377a5.311,5.311,0,0,0,.87-7.351,5.289,5.289,0,0,0-7.568-.838l-.516.429a13.129,13.129,0,0,1-2.472,1.621,7.907,7.907,0,0,1-9.051-1.592,8.714,8.714,0,1,0-9.609-3.2,9.933,9.933,0,0,0-5.126,2.891,1.9,1.9,0,0,0-.225.23A25.866,25.866,0,0,1,24.805,25.5a5.273,5.273,0,0,0-3.14,2.485l-3.908-3.908a4.391,4.391,0,0,0-6.2,0L6.442,29.2h0L1.328,34.31a4.386,4.386,0,0,0,0,6.2L15.419,54.6a4.386,4.386,0,0,0,6.2,0l5.3-5.3-2.511,6.584a1.907,1.907,0,1,0,3.563,1.359l6.254-16.4h14a5.127,5.127,0,0,1,4.939,6.5L48.83,62.922a1.631,1.631,0,0,1-1.566,1.19,1.626,1.626,0,0,1-1.606-1.881l2.305-14.493a1.907,1.907,0,0,0-1.883-2.206H41.56a1.907,1.907,0,0,0-1.7,1.046c-.111.22-11.174,22.094-14.9,29.485a1.958,1.958,0,0,1-2.016,1.049l-.09-.012a1.865,1.865,0,0,1-1.492-2.512l1.175-3.081a1.907,1.907,0,1,0-3.563-1.359l-1.175,3.081a5.679,5.679,0,0,0,4.543,7.65l.09.012a5.783,5.783,0,0,0,5.934-3.11c3.256-6.456,12.112-23.968,14.371-28.435h1.114L41.892,61.631a5.437,5.437,0,0,0,3.717,6.034L24.37,88.906a1.907,1.907,0,0,0,0,2.7l5.469,5.469a1.907,1.907,0,0,0,2.7,0L43.049,86.557a1.907,1.907,0,1,0-2.7-2.7l-9.165,9.165-2.772-2.772L63.364,55.3l6.755,6.755a1.907,1.907,0,0,0,2.7,0L84.236,50.637a1.907,1.907,0,0,0,0-2.7L83.18,46.884l10.134-2.039L91.275,54.979l-1.569-1.569a1.907,1.907,0,0,0-2.7,0L71.466,68.952,64.712,62.2a1.907,1.907,0,0,0-2.7,0L51.137,73.075a1.907,1.907,0,0,0,2.7,2.7l9.529-9.529L70.118,73a1.907,1.907,0,0,0,2.7,0L88.357,57.454l2.737,2.737a1.907,1.907,0,0,0,3.218-.972l3.307-16.433A1.907,1.907,0,0,0,97.1,41.062ZM50.153,3.813A4.891,4.891,0,1,1,45.261,8.7,4.9,4.9,0,0,1,50.153,3.813Zm-18.867,33.8-2.32-2.32q1.653-.539,3.244-1.231ZM24.851,31a1.478,1.478,0,0,1,1.01-1.827,29.741,29.741,0,0,0,8.692-4.118L33.476,29.19a32.883,32.883,0,0,1-6.8,2.815c-.044.013-.09.024-.136.032a1.464,1.464,0,0,1-1-.172l-.558-.558A1.451,1.451,0,0,1,24.851,31Zm-10.6-4.218a.573.573,0,0,1,.809,0l6.95,6.95a5.241,5.241,0,0,0,1.14,1.14l6,6a.572.572,0,0,1,0,.809l-3.766,3.766L21.2,41.256l.8-.8a1.907,1.907,0,0,0,0-2.7L17.7,33.469a1.907,1.907,0,0,0-2.7,0l-.8.8-3.724-3.724ZM16.862,40.2a.715.715,0,0,1-1.012,0h0l-.583-.583a.715.715,0,0,1,0-1.012l1.089-1.089,1.6,1.6Zm2.062,11.708a.572.572,0,0,1-.809,0L4.024,37.815a.572.572,0,0,1,0-.809L7.79,33.24l3.9,3.9a4.535,4.535,0,0,0,.879,5.17l.583.583h0a4.535,4.535,0,0,0,5.17.879l4.367,4.367ZM46.159,37.04H35.375l3.917-15.058a6.112,6.112,0,0,1,5.914-4.572,6.044,6.044,0,0,1,4.476,1.951,11.756,11.756,0,0,0,13.811,2.658,16.929,16.929,0,0,0,3.191-2.092L67.2,19.5a1.476,1.476,0,0,1,2.113.235,1.531,1.531,0,0,1-.289,2.087l-.454.377a19.778,19.778,0,0,1-15.725,4.345A1.9,1.9,0,0,0,50.752,27.8L47.516,37.04Z" transform="translate(-0.043)" fill="url(#linear-gradient)"/>
      <path id="XMLID_1920_" d="M238.9,408.8a1.908,1.908,0,1,0,1.348.559A1.92,1.92,0,0,0,238.9,408.8Z" transform="translate(-191.817 -330.855)" fill="url(#linear-gradient)"/>
      <path id="XMLID_1921_" d="M114.793,327.953a1.9,1.9,0,1,0-1.35-.559A1.92,1.92,0,0,0,114.793,327.953Z" transform="translate(-91.37 -262.337)" fill="url(#linear-gradient)"/>
    </g>
  </g>
</svg>
