<svg xmlns="http://www.w3.org/2000/svg" xmlns:xlink="http://www.w3.org/1999/xlink" width="95.074" height="95.074" viewBox="0 0 95.074 95.074">
  <defs>
    <linearGradient id="linear-gradient" x1="0.657" y1="0.205" x2="0.972" y2="1.162" gradientUnits="objectBoundingBox">
      <stop offset="0" stop-color="#2b5e8a"/>
      <stop offset="0.527" stop-color="#3d7ab0"/>
      <stop offset="1" stop-color="#8bb1d1"/>
    </linearGradient>
  </defs>
  <g id="machine-learning" transform="translate(-1 -1)">
    <path id="Path_373" data-name="Path 373" d="M96.074,33.538l-3.7-.925,1.964-3.272-2.86-2.861V1H48.537V25.535H44.924a20.259,20.259,0,0,0,.546-4.6A19.935,19.935,0,1,0,6.247,25.955,7.7,7.7,0,0,0,1,33.2v36.8a7.676,7.676,0,0,0,7.667,7.667H28.6V80.74H22.83a4.579,4.579,0,0,0-4.116,2.542l-2.38,4.763v8.029H59.271V88.045L56.89,83.284a4.576,4.576,0,0,0-4.114-2.544H47V77.673H66.939a7.676,7.676,0,0,0,7.667-7.667V59.271h7.331l.925-3.7,3.275,1.963,8.2-8.2-1.963-3.274,3.7-.923ZM51.6,4.067h36.8V23.411l-2.27-2.271L82.862,23.1l-.925-3.7h-11.6l-.925,3.7-3.275-1.964-4.392,4.393H51.6ZM58.683,28.6l-.738.738,2.187,3.643-2.8,1.733-8.8.02L48.54,37.8l20.016-.043.363-1.014a7.669,7.669,0,1,1-.011,5.146l-.362-1.023H53.138a4.606,4.606,0,0,0-4.6,4.6v9.2a1.533,1.533,0,1,1-3.067,0V51.6a4.6,4.6,0,1,0-9.2,0v3.067A1.534,1.534,0,0,1,34.736,56.2H28.6a1.534,1.534,0,0,1-1.533-1.533V53a9.207,9.207,0,0,0,7.667-9.063V39.971l4.895-4.895A19.916,19.916,0,0,0,43.964,28.6ZM19.4,40.87H31.669v3.067a6.134,6.134,0,1,1-12.268,0Zm1.533-18.4H17.868A3.067,3.067,0,1,1,20.935,19.4ZM27.069,37.8H24V25.535h3.067ZM25.535,4.067a16.9,16.9,0,0,1,11.927,28.84l-4.895,4.9H30.136V25.535H33.2A6.134,6.134,0,1,0,27.069,19.4v3.067H24V19.4a6.134,6.134,0,1,0-6.134,6.134h3.067V37.8H18.5l-4.895-4.895A16.9,16.9,0,0,1,25.535,4.067Zm4.6,18.4V19.4A3.067,3.067,0,1,1,33.2,22.468ZM22.83,83.807H28.6v3.067H20.349l1.11-2.219A1.522,1.522,0,0,1,22.83,83.807Zm-3.429,9.2V89.941H56.2v3.067Zm33.374-9.2a1.524,1.524,0,0,1,1.372.848l1.109,2.219H47V83.807Zm-8.839,3.067H31.669v-9.2H43.937Zm23-12.268H8.667a4.606,4.606,0,0,1-4.6-4.6v-4.6h18.4v1.533a4.606,4.606,0,0,0,4.6,4.6H48.537a4.606,4.606,0,0,0,4.6-4.6V65.405h18.4v4.6A4.606,4.606,0,0,1,66.939,74.606Zm-16.868-9.2v1.533a1.534,1.534,0,0,1-1.533,1.533h-4.6V65.405Zm-9.2,3.067H34.736V65.405H40.87Zm-9.2,0h-4.6a1.534,1.534,0,0,1-1.533-1.533V65.405h6.134Zm39.87-6.134H4.067V33.2a4.618,4.618,0,0,1,3.154-4.35,19.931,19.931,0,0,0,4.217,6.224l4.9,4.895v3.966A9.209,9.209,0,0,0,24,53v1.671a4.606,4.606,0,0,0,4.6,4.6h6.134a4.606,4.606,0,0,0,4.6-4.6V51.6a1.533,1.533,0,0,1,3.067,0v3.067a4.6,4.6,0,1,0,9.2,0v-9.2a1.535,1.535,0,0,1,1.533-1.533H57.3l2.829,1.751-2.187,3.643,8.2,8.2,3.275-1.963.923,3.7h1.2Zm21.468-19.6-2.989.747-.819.31-.713,1.751,1.987,3.312-4.814,4.814L82.35,51.685l-1.869.761L79.542,56.2H72.737l-.745-2.989-.31-.819-1.753-.713-3.311,1.987L61.8,48.858l1.987-3.312-.661-1.606,0,0h3.311a10.741,10.741,0,1,0,.017-9.239l-3.389.008.115-.092.61-1.487L61.8,29.817,66.617,25l3.311,1.987,1.871-.771.938-3.752h6.805l.937,3.751,1.871.771L85.661,25l4.814,4.812-1.987,3.309L89.247,35l3.76.938Z" fill="url(#linear-gradient)"/>
    <path id="Path_374" data-name="Path 374" d="M28,23h3.067v3.067H28Z" transform="translate(14.403 11.736)" fill="url(#linear-gradient)"/>
    <path id="Path_375" data-name="Path 375" d="M36,5h3.067V8.067H36Z" transform="translate(18.671 2.134)" fill="url(#linear-gradient)"/>
    <path id="Path_376" data-name="Path 376" d="M40,5H64.535V8.067H40Z" transform="translate(20.805 2.134)" fill="url(#linear-gradient)"/>
    <path id="Path_377" data-name="Path 377" d="M36,9H66.669v3.067H36Z" transform="translate(18.671 4.268)" fill="url(#linear-gradient)"/>
    <path id="Path_378" data-name="Path 378" d="M36,13h3.067v3.067H36Z" transform="translate(18.671 6.401)" fill="url(#linear-gradient)"/>
    <path id="Path_379" data-name="Path 379" d="M40,13h3.067v3.067H40Z" transform="translate(20.805 6.401)" fill="url(#linear-gradient)"/>
    <path id="Path_380" data-name="Path 380" d="M5,33H8.067v3.067H5Z" transform="translate(2.134 17.071)" fill="url(#linear-gradient)"/>
    <path id="Path_381" data-name="Path 381" d="M5,29H8.067v3.067H5Z" transform="translate(2.134 14.937)" fill="url(#linear-gradient)"/>
    <path id="Path_382" data-name="Path 382" d="M5,37H8.067v3.067H5Z" transform="translate(2.134 19.204)" fill="url(#linear-gradient)"/>
  </g>
</svg>
