<svg xmlns="http://www.w3.org/2000/svg" width="95.713" height="95.074" viewBox="0 0 95.713 95.074">
  <g id="vision" transform="translate(0 -1.709)">
    <path id="Path_383" data-name="Path 383" d="M72.781,70.773A52.357,52.357,0,0,0,93.075,55.306c1.849-2.343,2.638-4.155,2.638-6.06s-.789-3.717-2.64-6.062A52.353,52.353,0,0,0,72.781,27.72q-1.325-.582-2.689-1.1v-13.5h6.354a6.808,6.808,0,1,0,0-3.739H68.223a1.869,1.869,0,0,0-1.869,1.869V25.344a63.352,63.352,0,0,0-16.63-2.721V15.062a6.808,6.808,0,1,0-3.739,0v7.561a63.335,63.335,0,0,0-16.631,2.723V11.257a1.869,1.869,0,0,0-1.869-1.869H19.267a6.808,6.808,0,1,0,0,3.739h6.349v13.5q-1.359.517-2.684,1.1A52.361,52.361,0,0,0,2.638,43.186C.789,45.529,0,47.341,0,49.246s.789,3.717,2.64,6.062A52.357,52.357,0,0,0,22.931,70.773q1.322.581,2.684,1.1v13.5H19.267a6.808,6.808,0,1,0,0,3.739h8.218a1.869,1.869,0,0,0,1.869-1.869V73.147a63.335,63.335,0,0,0,16.631,2.723V83.43a6.808,6.808,0,1,0,3.739,0V75.869a63.353,63.353,0,0,0,16.63-2.721V87.236a1.869,1.869,0,0,0,1.869,1.869h8.223a6.808,6.808,0,1,0,0-3.739H70.092v-13.5q1.362-.518,2.689-1.1ZM82.991,8.187a3.069,3.069,0,1,1-3.069,3.069A3.073,3.073,0,0,1,82.991,8.187Zm-70.27,6.139a3.069,3.069,0,1,1,3.069-3.069A3.073,3.073,0,0,1,12.722,14.326Zm0,75.979a3.069,3.069,0,1,1,3.069-3.069A3.073,3.073,0,0,1,12.722,90.3Zm70.27-6.139a3.069,3.069,0,1,1-3.069,3.069A3.073,3.073,0,0,1,82.991,84.166ZM44.785,8.517a3.069,3.069,0,1,1,3.069,3.069A3.073,3.073,0,0,1,44.785,8.517ZM5.573,52.99C4.3,51.383,3.739,50.228,3.739,49.246S4.3,47.11,5.571,45.5A50.493,50.493,0,0,1,29.744,29.164a27.015,27.015,0,0,0,0,40.165A50.487,50.487,0,0,1,5.573,52.99Zm45.35,36.986a3.069,3.069,0,1,1-3.069-3.069A3.073,3.073,0,0,1,50.923,89.975Zm15.055-20.65a27.128,27.128,0,0,0,7.389-11.074,1.869,1.869,0,1,0-3.526-1.244,23.5,23.5,0,0,1-16.5,14.9c-1.81.166-3.64.256-5.484.256s-3.678-.09-5.49-.257a23.316,23.316,0,0,1,0-45.316c1.812-.167,3.643-.256,5.49-.256s3.673.09,5.483.256a23.5,23.5,0,0,1,16.5,14.878,1.869,1.869,0,1,0,3.525-1.248,27.151,27.151,0,0,0-7.385-11.052A50.486,50.486,0,0,1,90.14,45.5c1.269,1.607,1.834,2.762,1.834,3.743s-.566,2.136-1.832,3.741A50.488,50.488,0,0,1,65.978,69.325Z" fill="#fff"/>
    <path id="Path_384" data-name="Path 384" d="M192.943,174.691h-3.791a12.771,12.771,0,0,0-10.735-10.735v-3.791a1.869,1.869,0,1,0-3.739,0v3.791a12.771,12.771,0,0,0-10.735,10.735h-3.79a1.869,1.869,0,0,0,0,3.739h3.79a12.771,12.771,0,0,0,10.735,10.735v3.791a1.869,1.869,0,1,0,3.739,0v-3.791a12.771,12.771,0,0,0,10.735-10.735h3.791a1.869,1.869,0,0,0,0-3.739Zm-16.395,10.874a9,9,0,1,1,9-9A9.014,9.014,0,0,1,176.548,185.565Z" transform="translate(-128.694 -127.315)" fill="#fff"/>
    <path id="Path_385" data-name="Path 385" d="M382.555,245.943a1.869,1.869,0,0,0-1.869,1.869v.011a1.869,1.869,0,1,0,1.869-1.88Z" transform="translate(-309.521 -198.577)" fill="#fff"/>
  </g>
</svg>
